<svg xmlns="http://www.w3.org/2000/svg" xmlns:xlink="http://www.w3.org/1999/xlink" viewBox="0,0,256,256" width="16px" height="16px"><g fill="#118f9d" fill-rule="nonzero" stroke="none" stroke-width="1" stroke-linecap="butt" stroke-linejoin="miter" stroke-miterlimit="10" stroke-dasharray="" stroke-dashoffset="0" font-family="none" font-weight="none" font-size="none" text-anchor="none" style="mix-blend-mode: normal"><g transform="scale(16,16)"><path d="M2.5,2c-0.82812,0 -1.5,0.67188 -1.5,1.5v9c0,0.57422 0.32813,1.06641 0.80469,1.31641l1.99609,-5.79687c0.20312,-0.60938 0.77344,-1.01953 1.41797,-1.01953h9.78125v-1.5c0,-0.82812 -0.67187,-1.5 -1.5,-1.5h-6.70312l-0.65234,-1.21094c-0.26172,-0.48828 -0.76953,-0.78906 -1.32031,-0.78906zM5.21875,8c-0.21484,0 -0.40625,0.13672 -0.47266,0.34375l-1.94922,5.65625h10.70313c0.82813,0 1.5,-0.67187 1.5,-1.5v-4.5z"></path></g></g></svg>